# 63 vertices, 98 faces
v 3.04087 22.0979 26.0199
vn 0.119332 -0.139766 0.982968
vt 0.175635 0.125218
v 3.59436 18.7768 25.2125
vn 0.177577 -0.266208 0.947417
vt 0.322011 0.201056
v 5.86457 22.7267 25.5355
vn 0.305008 -0.0907858 0.948013
vt 0.24306 0.0571484
v 0 18.4642 25.4112
vn 0 -0.276385 0.961047
vt 0.248979 0.32267
v 4.81951 25.3755 25.9262
vn 0.243422 -0.038441 0.969158
vt 0.10048 0
v 0 21.8508 26.1208
vn -6.22615e-10 -0.122693 0.992445
vt 0.127476 0.224705
v 2.54612 25.1399 26.2774
vn 0.0819038 -0.0734217 0.993932
vt 0 5.96046e-08
v 7.47653 19.7849 24.4835
vn 0.332719 -0.189404 0.92381
vt 0.402447 0.0798251
v -3.04087 22.0979 26.0199
vn -0.119331 -0.139766 0.982968
vt 0.0798097 0.337726
v -3.59436 18.7768 25.2125
vn -0.177577 -0.266208 0.947417
vt 0.168821 0.452078
v 0 24.9888 26.3866
vn 0 -0.0844015 0.996432
vt 0 0.110932
v -5.86457 22.7267 25.5355
vn -0.264581 -0.143697 0.953597
vt 0 0.447237
v -2.54612 25.1399 26.2774
vn -0.0819038 -0.0734217 0.993932
vt 0 0.221865
v -4.81951 25.3755 25.9262
vn -0.171235 -0.0648192 0.983096
vt 0 0.322345
v -7.47653 19.7849 24.4835
vn -0.332718 -0.189404 0.92381
vt 0.071804 0.606188
v 4.50142 2.6715 7.58054
vn 0.152031 -0.938036 0.311407
vt 1 0.674697
v 8.62018 4.96021 11.342
vn 0.273205 -0.875244 0.399132
vt 1 0.412712
v 4.33798 3.98662 11.6218
vn 0.149676 -0.91243 0.380878
vt 0.936316 0.600414
v 0 2.34131 7.63265
vn 0.0244247 -0.949456 0.312947
vt 1 0.870836
v 11.9138 8.10815 14.5448
vn 0.388929 -0.759263 0.52178
vt 1 0.170716
v 8.13548 6.71555 15.0279
vn 0.285282 -0.811426 0.5101
vt 0.91568 0.347416
v 0 3.67436 11.6705
vn 2.49589e-09 -0.914937 0.403597
vt 0.890553 0.788749
v -4.33798 3.98662 11.6218
vn -0.121794 -0.906261 0.404793
vt 0.863289 1
v 4.11336 5.88924 15.4296
vn 0.148443 -0.842588 0.517697
vt 0.836382 0.521013
v -4.11336 5.88924 15.4296
vn -0.148443 -0.842588 0.517697
vt 0.690393 0.850681
v -8.13548 6.71555 15.0279
vn -0.280466 -0.791537 0.542963
vt 0.611901 1
v 0 5.58788 15.5296
vn -1.24922e-09 -0.84149 0.540272
vt 0.763206 0.688253
v 10.6995 9.98446 17.8371
vn 0.381803 -0.674868 0.63149
vt 0.904924 0.12748
v 7.6806 9.11702 18.4194
vn 0.271042 -0.708971 0.651073
vt 0.809262 0.278267
v 3.93204 8.38833 18.888
vn 0.140483 -0.728655 0.670318
vt 0.718311 0.438193
v -7.81538 23.7705 24.7179
vn -0.394715 -0.0873497 0.914642
vt 0 0.549731
v -9.57734 22.4834 23.9082
vn -0.370169 -0.0910864 0.924488
vt 0 0.650863
v -10.6995 9.98446 17.8371
vn -0.381803 -0.674868 0.63149
vt 0.343664 0.95049
v -11.9138 8.10815 14.5448
vn -0.401908 -0.723876 0.560779
vt 0.435671 1
v -7.6806 9.11702 18.4194
vn -0.271042 -0.708972 0.651073
vt 0.446848 0.866776
v -3.93204 8.38833 18.888
vn -0.140483 -0.728655 0.670318
vt 0.543798 0.735549
v 0 8.10236 19.03
vn -1.87756e-09 -0.750353 0.661038
vt 0.633133 0.591066
v 0 11.2363 21.9458
vn 3.75354e-09 -0.628461 0.777841
vt 0.503061 0.499734
v 10.0757 12.7803 20.603
vn 0.333305 -0.542258 0.771275
vt 0.768466 0.0891515
v 7.23837 12.1076 21.2479
vn 0.250158 -0.56624 0.785362
vt 0.678984 0.218732
v 3.76715 11.4968 21.7619
vn 0.138142 -0.573463 0.807501
vt 0.590221 0.358261
v -10.0757 12.7803 20.603
vn -0.333305 -0.542258 0.771275
vt 0.220265 0.877781
v -7.23837 12.1076 21.2479
vn -0.250158 -0.56624 0.785362
vt 0.315031 0.765961
v -3.76715 11.4968 21.7619
vn -0.138142 -0.573463 0.807501
vt 0.411308 0.636967
v 0 14.7853 24.1027
vn 1.25171e-09 -0.455986 0.889987
vt 0.3744 0.411923
v -3.69156 15.0493 23.8626
vn -0.153418 -0.415312 0.896649
vt 0.284865 0.546474
v -7.17813 15.6482 23.2582
vn -0.270248 -0.38725 0.881478
vt 0.18937 0.684866
v -10.0559 16.0527 22.4068
vn -0.346561 -0.360529 0.865976
vt 0.0952619 0.827496
v -11.5857 13.3098 20.224
vn -0.404339 -0.526998 0.747518
vt 0.153826 0.943121
v -10.7455 19.5946 23.1277
vn -0.368119 -0.201544 0.907672
vt 0 0.790447
v -11.8813 16.2758 21.7223
vn -0.385993 -0.383489 0.839014
vt 0 0.954649
v 3.69156 15.0493 23.8626
vn 0.153418 -0.415312 0.896649
vt 0.45916 0.279279
v 7.17813 15.6482 23.2582
vn 0.270248 -0.38725 0.881478
vt 0.544243 0.154101
v 10.0559 16.0527 22.4068
vn 0.346561 -0.360529 0.865976
vt 0.630128 0.0548824
v 11.5857 13.3098 20.224
vn 0.391029 -0.527606 0.754141
vt 0.829425 0
v -12.502 10.7384 17.3108
vn -0.44481 -0.632495 0.634109
vt 0.267856 1
v -12.7533 13.6895 19.8106
vn -0.430673 -0.525434 0.733785
vt 0.099445 1
v 10.7455 19.5946 23.1277
vn 0.368119 -0.201544 0.907672
vt 0.520261 0
v 11.8813 16.2758 21.7223
vn 0.366022 -0.353182 0.860982
vt 0.684462 0
v 9.57734 22.4834 23.9082
vn 0.370169 -0.0910864 0.924488
vt 0.380676 0
v 7.81538 23.7705 24.7179
vn 0.390017 -0.0529531 0.919284
vt 0.279544 0
v 6.43394 25.6035 25.2524
vn 0.381253 0.0155059 0.924341
vt 0.17714 0
v 12.502 10.7384 17.3108
vn 0.450234 -0.646391 0.61601
vt 1 0.00290159
f 1/1/1 2/2/2 3/3/3
f 1/1/1 4/4/4 2/2/2
f 1/1/1 3/3/3 5/5/5
f 1/1/1 6/6/6 4/4/4
f 1/1/1 5/5/5 7/7/7
f 1/1/1 7/7/7 6/6/6
f 2/2/2 8/8/8 3/3/3
f 4/4/4 6/6/6 9/9/9
f 4/4/4 9/9/9 10/10/10
f 7/7/7 11/11/11 6/6/6
f 9/9/9 12/12/12 10/10/10
f 9/9/9 6/6/6 13/13/13
f 9/9/9 14/14/14 12/12/12
f 9/9/9 13/13/13 14/14/14
f 13/13/13 6/6/6 11/11/11
f 10/10/10 12/12/12 15/15/15
f 16/16/16 17/17/17 18/18/18
f 16/16/16 18/18/18 19/19/19
f 17/17/17 20/20/20 21/21/21
f 17/17/17 21/21/21 18/18/18
f 19/19/19 18/18/18 22/22/22
f 19/19/19 22/22/22 23/23/23
f 18/18/18 21/21/21 24/24/24
f 18/18/18 24/24/24 22/22/22
f 23/23/23 22/22/22 25/25/25
f 23/23/23 25/25/25 26/26/26
f 22/22/22 24/24/24 27/27/27
f 22/22/22 27/27/27 25/25/25
f 21/21/21 20/20/20 28/28/28
f 21/21/21 29/29/29 24/24/24
f 21/21/21 28/28/28 29/29/29
f 24/24/24 30/30/30 27/27/27
f 24/24/24 29/29/29 30/30/30
f 12/12/12 31/31/31 15/15/15
f 31/31/31 32/32/32 15/15/15
f 26/26/26 33/33/33 34/34/34
f 26/26/26 25/25/25 35/35/35
f 26/26/26 35/35/35 33/33/33
f 25/25/25 27/27/27 36/36/36
f 25/25/25 36/36/36 35/35/35
f 27/27/27 30/30/30 37/37/37
f 27/27/27 37/37/37 36/36/36
f 37/37/37 30/30/30 38/38/38
f 37/37/37 38/38/38 36/36/36
f 29/29/29 28/28/28 39/39/39
f 29/29/29 40/40/40 30/30/30
f 29/29/29 39/39/39 40/40/40
f 30/30/30 41/41/41 38/38/38
f 30/30/30 40/40/40 41/41/41
f 35/35/35 42/42/42 33/33/33
f 35/35/35 36/36/36 43/43/43
f 35/35/35 43/43/43 42/42/42
f 36/36/36 38/38/38 44/44/44
f 36/36/36 44/44/44 43/43/43
f 38/38/38 41/41/41 45/45/45
f 38/38/38 45/45/45 44/44/44
f 44/44/44 46/46/46 43/43/43
f 44/44/44 45/45/45 46/46/46
f 43/43/43 47/47/47 42/42/42
f 43/43/43 46/46/46 47/47/47
f 47/47/47 15/15/15 48/48/48
f 42/42/42 49/49/49 33/33/33
f 42/42/42 47/47/47 48/48/48
f 42/42/42 48/48/48 49/49/49
f 47/47/47 46/46/46 10/10/10
f 47/47/47 10/10/10 15/15/15
f 15/15/15 32/32/32 50/50/50
f 15/15/15 50/50/50 48/48/48
f 48/48/48 51/51/51 49/49/49
f 48/48/48 50/50/50 51/51/51
f 10/10/10 46/46/46 4/4/4
f 46/46/46 45/45/45 4/4/4
f 45/45/45 41/41/41 52/52/52
f 41/41/41 40/40/40 52/52/52
f 45/45/45 52/52/52 4/4/4
f 4/4/4 52/52/52 2/2/2
f 52/52/52 40/40/40 53/53/53
f 40/40/40 39/39/39 53/53/53
f 52/52/52 53/53/53 2/2/2
f 2/2/2 53/53/53 8/8/8
f 53/53/53 39/39/39 54/54/54
f 53/53/53 54/54/54 8/8/8
f 39/39/39 28/28/28 55/55/55
f 39/39/39 55/55/55 54/54/54
f 49/49/49 56/56/56 33/33/33
f 33/33/33 56/56/56 34/34/34
f 49/49/49 51/51/51 57/57/57
f 49/49/49 57/57/57 56/56/56
f 54/54/54 58/58/58 8/8/8
f 54/54/54 55/55/55 59/59/59
f 54/54/54 59/59/59 58/58/58
f 58/58/58 60/60/60 8/8/8
f 60/60/60 61/61/61 8/8/8
f 8/8/8 61/61/61 3/3/3
f 61/61/61 62/62/62 3/3/3
f 3/3/3 62/62/62 5/5/5
f 55/55/55 28/28/28 63/63/63
f 28/28/28 20/20/20 63/63/63
