# 15 vertices, 16 faces
v 0.479189 0.469747 0.822712
vn 0.596715 0.728198 0.337132
vt 0.303169 0
v 0.487897 0.421217 0.905719
vn 0.572717 0.752703 0.324703
vt 0 5.96046e-08
v 0.556776 0.383405 0.871882
vn 0.600103 0.754121 0.266791
vt 0.264608 0.29997
v 0.528328 0.462634 0.741821
vn 0.66277 0.698299 0.270399
vt 0.601212 0
v 0.591021 0.424597 0.667384
vn 0.733537 0.648112 0.204633
vt 0.929325 0
v 0.616383 0.361807 0.775338
vn 0.719437 0.670723 0.180393
vt 0.649678 0.419253
v 0.519 0.381433 0.952535
vn 0.54713 0.790379 0.275588
vt 0 0.216235
v 0.617701 0.337517 0.858749
vn 0.660076 0.731509 0.170862
vt 0.3848 0.580769
v 0.657278 0.355939 0.614669
vn 0.770519 0.613287 0.173721
vt 1 0.271627
v 0.61405 0.288208 1.0451
vn 0.558558 0.790901 0.249977
vt 0 0.72542
v 0.681166 0.294051 0.728415
vn 0.760317 0.636193 0.13106
vt 1 0.685113
v 0.673941 0.256434 0.999748
vn 0.622826 0.757881 0.194175
vt 0 0.981556
v 0.704734 0.242144 0.936331
vn 0.677069 0.724213 0.130739
vt 0.207431 1
v 0.67832 0.28401 0.824389
vn 0.715738 0.685897 0.131394
vt 0.591782 1
v 0.734758 0.218136 0.836669
vn 0.747948 0.656895 0.0951954
vt 0.866889 1
f 1/1/1 2/2/2 3/3/3
f 3/3/3 4/4/4 1/1/1
f 5/5/5 4/4/4 6/6/6
f 2/2/2 7/7/7 3/3/3
f 3/3/3 6/6/6 4/4/4
f 6/6/6 3/3/3 8/8/8
f 6/6/6 9/9/9 5/5/5
f 3/3/3 7/7/7 10/10/10
f 9/9/9 6/6/6 11/11/11
f 3/3/3 10/10/10 12/12/12
f 3/3/3 12/12/12 8/8/8
f 8/8/8 12/12/12 13/13/13
f 14/14/14 8/8/8 13/13/13
f 8/8/8 14/14/14 6/6/6
f 6/6/6 14/14/14 15/15/15
f 6/6/6 15/15/15 11/11/11
